<svg width="150" height="110" viewBox="0 0 150 110" fill="none" xmlns="http://www.w3.org/2000/svg">
<path d="M52.3716 47.2479C54.4312 6.71162 82.2443 0 82.2443 0C82.2443 0 39.2045 2.13068 39.2045 48.5795C40.213 81.7155 29.6095 93.5302 0 109.091C37.6891 101.828 50.3119 87.7841 52.3716 47.2479Z" fill="#EF1923"/>
<path d="M76.7046 103.977L82.2444 61.7898H53.2671L56.25 55.3977H83.5228L91.1932 15.3409H106.108L91.1932 103.977H76.7046Z" fill="#EF1923"/>
<path d="M121.875 17.4716L113.352 24.7159H141.477L150 17.4716H121.875Z" fill="#EF1923"/>
<path d="M115.057 54.5455L106.534 61.7898H134.659L143.182 54.5455H115.057Z" fill="#EF1923"/>
<path d="M108.239 91.1932L99.7159 98.4375H127.841L136.364 91.1932H108.239Z" fill="#EF1923"/>
</svg>
